<svg width="500" height="141" viewBox="0 0 500 141" fill="none" xmlns="http://www.w3.org/2000/svg">
<path d="M10.4247 78V27.0909H21.1882V48.0959H43.0384V27.0909H53.777V78H43.0384V56.9702H21.1882V78H10.4247ZM62.6513 78V27.0909H96.9553V35.9652H73.4148V48.0959H95.1903V56.9702H73.4148V69.1257H97.0547V78H62.6513ZM105.513 78V27.0909H116.276V69.1257H138.101V78H105.513ZM145.229 78V27.0909H155.993V69.1257H177.818V78H145.229ZM229.746 52.5455C229.746 58.0971 228.694 62.8201 226.589 66.7145C224.501 70.6089 221.651 73.5836 218.038 75.6385C214.442 77.6768 210.399 78.696 205.908 78.696C201.384 78.696 197.323 77.6686 193.727 75.6136C190.131 73.5587 187.289 70.584 185.201 66.6896C183.113 62.7952 182.069 58.0805 182.069 52.5455C182.069 46.9938 183.113 42.2708 185.201 38.3764C187.289 34.482 190.131 31.5156 193.727 29.4773C197.323 27.4223 201.384 26.3949 205.908 26.3949C210.399 26.3949 214.442 27.4223 218.038 29.4773C221.651 31.5156 224.501 34.482 226.589 38.3764C228.694 42.2708 229.746 46.9938 229.746 52.5455ZM218.834 52.5455C218.834 48.9493 218.295 45.9167 217.218 43.4474C216.157 40.9782 214.658 39.1056 212.719 37.8295C210.78 36.5535 208.509 35.9155 205.908 35.9155C203.306 35.9155 201.036 36.5535 199.097 37.8295C197.158 39.1056 195.65 40.9782 194.572 43.4474C193.512 45.9167 192.982 48.9493 192.982 52.5455C192.982 56.1416 193.512 59.1742 194.572 61.6435C195.65 64.1127 197.158 65.9853 199.097 67.2614C201.036 68.5374 203.306 69.1754 205.908 69.1754C208.509 69.1754 210.78 68.5374 212.719 67.2614C214.658 65.9853 216.157 64.1127 217.218 61.6435C218.295 59.1742 218.834 56.1416 218.834 52.5455Z" fill="#07052F"/>
<path d="M251.982 35.9652V27.0909H293.793V35.9652H278.207V78H267.568V35.9652H251.982ZM332.124 27.0909H342.887V60.152C342.887 63.8641 342.001 67.1122 340.228 69.8963C338.471 72.6804 336.01 74.8513 332.845 76.4091C329.68 77.9503 325.992 78.7209 321.783 78.7209C317.557 78.7209 313.862 77.9503 310.696 76.4091C307.531 74.8513 305.07 72.6804 303.314 69.8963C301.557 67.1122 300.679 63.8641 300.679 60.152V27.0909H311.442V59.2322C311.442 61.1712 311.865 62.8946 312.71 64.4027C313.572 65.9107 314.781 67.0956 316.339 67.9574C317.897 68.8191 319.712 69.25 321.783 69.25C323.871 69.25 325.686 68.8191 327.227 67.9574C328.785 67.0956 329.986 65.9107 330.831 64.4027C331.693 62.8946 332.124 61.1712 332.124 59.2322V27.0909ZM349.804 35.9652V27.0909H391.615V35.9652H376.029V78H365.39V35.9652H349.804ZM442.959 52.5455C442.959 58.0971 441.907 62.8201 439.802 66.7145C437.714 70.6089 434.864 73.5836 431.251 75.6385C427.655 77.6768 423.612 78.696 419.121 78.696C414.596 78.696 410.536 77.6686 406.94 75.6136C403.344 73.5587 400.502 70.584 398.414 66.6896C396.326 62.7952 395.282 58.0805 395.282 52.5455C395.282 46.9938 396.326 42.2708 398.414 38.3764C400.502 34.482 403.344 31.5156 406.94 29.4773C410.536 27.4223 414.596 26.3949 419.121 26.3949C423.612 26.3949 427.655 27.4223 431.251 29.4773C434.864 31.5156 437.714 34.482 439.802 38.3764C441.907 42.2708 442.959 46.9938 442.959 52.5455ZM432.047 52.5455C432.047 48.9493 431.508 45.9167 430.431 43.4474C429.37 40.9782 427.871 39.1056 425.932 37.8295C423.993 36.5535 421.722 35.9155 419.121 35.9155C416.519 35.9155 414.248 36.5535 412.309 37.8295C410.371 39.1056 408.863 40.9782 407.785 43.4474C406.725 45.9167 406.194 48.9493 406.194 52.5455C406.194 56.1416 406.725 59.1742 407.785 61.6435C408.863 64.1127 410.371 65.9853 412.309 67.2614C414.248 68.5374 416.519 69.1754 419.121 69.1754C421.722 69.1754 423.993 68.5374 425.932 67.2614C427.871 65.9853 429.37 64.1127 430.431 61.6435C431.508 59.1742 432.047 56.1416 432.047 52.5455ZM450.933 78V27.0909H471.018C474.862 27.0909 478.144 27.7786 480.862 29.1541C483.596 30.513 485.676 32.4437 487.101 34.946C488.543 37.4318 489.263 40.3568 489.263 43.7209C489.263 47.1016 488.534 50.0099 487.076 52.446C485.618 54.8655 483.505 56.7216 480.737 58.0142C477.986 59.3068 474.655 59.9531 470.744 59.9531H457.296V51.3026H469.004C471.059 51.3026 472.766 51.0208 474.125 50.4574C475.484 49.8939 476.495 49.0488 477.158 47.9219C477.837 46.795 478.177 45.3946 478.177 43.7209C478.177 42.0305 477.837 40.6053 477.158 39.4453C476.495 38.2853 475.476 37.407 474.1 36.8104C472.741 36.1972 471.026 35.8906 468.955 35.8906H461.696V78H450.933ZM478.425 54.8324L491.078 78H479.196L466.817 54.8324H478.425Z" fill="#7900C1"/>
<path d="M110.545 124H103.152V102.182H110.695C112.861 102.182 114.722 102.619 116.277 103.492C117.839 104.359 119.04 105.605 119.878 107.232C120.716 108.858 121.135 110.804 121.135 113.07C121.135 115.342 120.712 117.295 119.867 118.929C119.029 120.562 117.818 121.816 116.234 122.69C114.658 123.563 112.761 124 110.545 124ZM107.104 120.58H110.354C111.874 120.58 113.141 120.303 114.157 119.749C115.173 119.188 115.936 118.354 116.447 117.246C116.959 116.131 117.214 114.739 117.214 113.07C117.214 111.401 116.959 110.016 116.447 108.915C115.936 107.807 115.18 106.979 114.178 106.433C113.184 105.879 111.948 105.602 110.471 105.602H107.104V120.58ZM149.843 102.182V124H145.89V102.182H149.843ZM182.516 124H175.123V102.182H182.665C184.831 102.182 186.692 102.619 188.248 103.492C189.81 104.359 191.01 105.605 191.849 107.232C192.687 108.858 193.106 110.804 193.106 113.07C193.106 115.342 192.683 117.295 191.838 118.929C191 120.562 189.789 121.816 188.205 122.69C186.628 123.563 184.732 124 182.516 124ZM179.075 120.58H182.324C183.844 120.58 185.112 120.303 186.128 119.749C187.143 119.188 187.907 118.354 188.418 117.246C188.93 116.131 189.185 114.739 189.185 113.07C189.185 111.401 188.93 110.016 188.418 108.915C187.907 107.807 187.15 106.979 186.149 106.433C185.155 105.879 183.919 105.602 182.442 105.602H179.075V120.58ZM219.491 124H215.272L222.953 102.182H227.833L235.524 124H231.306L225.478 106.656H225.308L219.491 124ZM219.629 115.445H231.135V118.62H219.629V115.445ZM270.904 108.18C270.804 107.249 270.385 106.525 269.647 106.006C268.915 105.488 267.963 105.229 266.792 105.229C265.968 105.229 265.261 105.353 264.672 105.602C264.082 105.85 263.631 106.187 263.319 106.614C263.006 107.04 262.846 107.526 262.839 108.073C262.839 108.528 262.942 108.922 263.148 109.256C263.361 109.589 263.649 109.874 264.011 110.108C264.373 110.335 264.775 110.527 265.215 110.683C265.655 110.839 266.099 110.971 266.547 111.077L268.592 111.589C269.416 111.781 270.208 112.04 270.968 112.366C271.735 112.693 272.42 113.105 273.024 113.602C273.635 114.099 274.118 114.7 274.473 115.403C274.828 116.106 275.005 116.93 275.005 117.874C275.005 119.153 274.679 120.278 274.025 121.251C273.372 122.217 272.427 122.974 271.191 123.521C269.963 124.06 268.475 124.33 266.728 124.33C265.03 124.33 263.556 124.067 262.306 123.542C261.064 123.016 260.091 122.249 259.387 121.241C258.691 120.232 258.315 119.004 258.258 117.555H262.147C262.203 118.315 262.438 118.947 262.85 119.451C263.262 119.955 263.798 120.332 264.458 120.58C265.126 120.829 265.872 120.953 266.696 120.953C267.555 120.953 268.308 120.825 268.954 120.57C269.608 120.307 270.119 119.945 270.488 119.483C270.858 119.014 271.046 118.467 271.053 117.842C271.046 117.274 270.879 116.805 270.552 116.436C270.225 116.06 269.767 115.747 269.178 115.499C268.596 115.243 267.914 115.016 267.132 114.817L264.65 114.178C262.853 113.716 261.433 113.016 260.389 112.079C259.352 111.134 258.833 109.881 258.833 108.318C258.833 107.033 259.181 105.907 259.877 104.941C260.581 103.975 261.536 103.226 262.743 102.693C263.951 102.153 265.318 101.884 266.845 101.884C268.393 101.884 269.75 102.153 270.914 102.693C272.086 103.226 273.006 103.968 273.674 104.92C274.341 105.864 274.686 106.951 274.707 108.18H270.904ZM319.025 113.091C319.025 115.442 318.584 117.455 317.704 119.131C316.83 120.8 315.637 122.079 314.124 122.967C312.618 123.854 310.91 124.298 309 124.298C307.089 124.298 305.378 123.854 303.865 122.967C302.359 122.072 301.166 120.79 300.285 119.121C299.412 117.445 298.975 115.435 298.975 113.091C298.975 110.74 299.412 108.73 300.285 107.061C301.166 105.385 302.359 104.103 303.865 103.215C305.378 102.327 307.089 101.884 309 101.884C310.91 101.884 312.618 102.327 314.124 103.215C315.637 104.103 316.83 105.385 317.704 107.061C318.584 108.73 319.025 110.74 319.025 113.091ZM315.051 113.091C315.051 111.436 314.792 110.04 314.273 108.904C313.762 107.761 313.052 106.898 312.143 106.315C311.233 105.726 310.186 105.431 309 105.431C307.814 105.431 306.766 105.726 305.857 106.315C304.948 106.898 304.234 107.761 303.716 108.904C303.204 110.04 302.949 111.436 302.949 113.091C302.949 114.746 303.204 116.145 303.716 117.288C304.234 118.425 304.948 119.288 305.857 119.877C306.766 120.46 307.814 120.751 309 120.751C310.186 120.751 311.233 120.46 312.143 119.877C313.052 119.288 313.762 118.425 314.273 117.288C314.792 116.145 315.051 114.746 315.051 113.091ZM343.761 124V102.182H357.739V105.495H347.714V111.418H356.78V114.732H347.714V124H343.761ZM382.339 124V102.182H396.317V105.495H386.292V111.418H395.358V114.732H386.292V124H382.339Z" fill="#07052F"/>
</svg>
